<svg xmlns="http://www.w3.org/2000/svg" style="position:absolute; width: 0; height: 0;"><symbol viewBox="0 0 47.971 47.971" id="iconclose"><path d="M28.228 23.986L47.092 5.122a2.998 2.998 0 0 0 0-4.242 2.998 2.998 0 0 0-4.242 0L23.986 19.744 5.121.88a2.998 2.998 0 0 0-4.242 0 2.998 2.998 0 0 0 0 4.242l18.865 18.864L.879 42.85a2.998 2.998 0 1 0 4.242 4.241l18.865-18.864L42.85 47.091c.586.586 1.354.879 2.121.879s1.535-.293 2.121-.879a2.998 2.998 0 0 0 0-4.242L28.228 23.986z"></path></symbol><symbol viewBox="0 0 475.075 475.075" id="iconstar"><path d="M475.075 186.573c0-7.043-5.328-11.42-15.992-13.135L315.766 152.6 251.529 22.694c-3.614-7.804-8.281-11.704-13.99-11.704-5.708 0-10.372 3.9-13.989 11.704L159.31 152.6 15.986 173.438C5.33 175.153 0 179.53 0 186.573c0 3.999 2.38 8.567 7.139 13.706l103.924 101.068L86.51 444.096c-.381 2.666-.57 4.575-.57 5.712 0 3.997.998 7.374 2.996 10.136 1.997 2.766 4.993 4.142 8.992 4.142 3.428 0 7.233-1.137 11.42-3.423l128.188-67.386 128.197 67.386c4.004 2.286 7.81 3.423 11.416 3.423 3.819 0 6.715-1.376 8.713-4.142 1.992-2.758 2.991-6.139 2.991-10.136 0-2.471-.096-4.374-.287-5.712l-24.555-142.749 103.637-101.068c4.956-4.949 7.427-9.519 7.427-13.706z"></path></symbol><symbol viewBox="0 0 350 350" id="iconuser"><path d="M175 171.173c38.914 0 70.463-38.318 70.463-85.586C245.463 38.318 235.105 0 175 0s-70.465 38.318-70.465 85.587c0 47.268 31.549 85.586 70.465 85.586zM41.909 301.853c-.012-2.882-.024-.812 0 0zM308.085 304.104c.038-.789.013-5.474 0 0z"></path><path d="M307.935 298.397c-1.305-82.342-12.059-105.805-94.352-120.657 0 0-11.584 14.761-38.584 14.761s-38.586-14.761-38.586-14.761C55.018 192.43 43.61 215.545 42.11 295.722c-.123 6.547-.18 6.891-.202 6.131.005 1.424.011 4.058.011 8.651 0 0 19.592 39.496 133.08 39.496 113.486 0 133.08-39.496 133.08-39.496 0-2.951.002-5.003.005-6.399-.022.47-.066-.441-.149-5.708z"></path></symbol></svg>